<svg xmlns="http://www.w3.org/2000/svg" viewBox="0 0 24 24" fill="currentColor">
  <path d="M12.206.793c.99 0 4.347.276 5.93 3.821.529 1.193.403 3.219.299 4.847l-.003.06c-.012.18-.022.345-.03.51.075.045.203.09.401.09.3-.016.659-.12 1.033-.301.165-.088.344-.104.464-.104.182 0 .359.029.509.09.45.149.734.479.734.838.015.449-.39.839-1.213 1.168-.09.03-.209.06-.344.09-.45.12-1.17.3-1.591.69-.3.27-.45.659-.45 1.05 0 .449.18.839.659 1.2.15.12.3.21.45.3.3.18.6.27.9.36.3.09.6.15.9.21.3.06.6.12.9.15.3.03.6.06.9.09.3.03.6.06.9.06.3 0 .6-.03.9-.06.3-.03.6-.06.9-.09.3-.03.6-.09.9-.15.3-.06.6-.12.9-.21.3-.09.6-.18.9-.36.15-.09.3-.18.45-.3.48-.36.659-.75.659-1.2 0-.39-.15-.78-.45-1.05-.42-.39-1.14-.57-1.591-.69-.135-.03-.255-.06-.344-.09-.824-.329-1.228-.719-1.213-1.168 0-.359.285-.689.734-.838.15-.061.327-.09.509-.09.12 0 .3.016.464.104.375.18.734.285 1.033.301.199 0 .327-.045.401-.09-.008-.165-.018-.33-.03-.51l-.003-.06c-.104-1.628-.23-3.654.299-4.847 1.583-3.545 4.939-3.821 5.93-3.821.464 0 .824.12 1.033.3.3.24.45.57.45.96 0 .329-.15.659-.45.96-.15.12-.3.21-.45.3-.3.18-.6.27-.9.36-.3.09-.6.15-.9.21-.3.06-.6.12-.9.15-.3.03-.6.06-.9.09-.3.03-.6.06-.9.06-.3 0-.6-.03-.9-.06-.3-.03-.6-.06-.9-.09-.3-.03-.6-.09-.9-.15-.3-.06-.6-.12-.9-.21-.3-.09-.6-.18-.9-.36-.15-.09-.3-.18-.45-.3-.3-.3-.45-.63-.45-.96 0-.39.15-.72.45-.96.21-.18.57-.3 1.033-.3z"/>
</svg> 